<svg width="521" height="221" viewBox="0 0 521 221" fill="none" xmlns="http://www.w3.org/2000/svg">
<path d="M110.116 63.3875C91.2145 95.8979 81.3858 120.848 54.1678 140.505C79.8737 138.993 97.3301 126.436 119.945 82.2889C137.216 48.956 146.459 34.8925 169.844 15C144.856 16.6002 131.529 24.5981 110.116 63.3875Z" fill="#669900" stroke="#669900"/>
<path d="M150.187 120.848C135.136 93.996 131.234 79.7997 143.382 58.0951C143.929 76.9453 163.06 108.164 200.842 167.723C208.403 179.641 212.183 204.77 200.842 219.135C199.179 197.853 186.386 174.726 150.187 120.848Z" fill="#669900" stroke="#669900"/>
<path d="M97.2629 140.505L123.725 95.8979L150.187 140.505H97.2629Z" fill="#FF9900" stroke="#FF9900"/>
<path d="M54.1678 150.334C31.9756 149.984 20.3243 148.271 2 140.505C13.1567 158.494 24.1713 164.932 54.1678 168.479H124.481C147.163 169.235 162.284 171.503 174.381 177.552C166.064 163.187 153.967 150.334 116.164 150.334H54.1678Z" fill="#669900" stroke="#669900"/>
<path d="M234.64 142.6C222.373 142.6 214.107 140.467 209.84 136.2C208.027 134.387 206.907 132.36 206.48 130.12C206.053 127.773 205.84 124.2 205.84 119.4H209.04C210 124.733 212.293 128.893 215.92 131.88C219.653 134.76 224.827 136.2 231.44 136.2C237.307 136.2 241.68 135.187 244.56 133.16C247.547 131.133 249.04 128.413 249.04 125C249.04 121.907 247.867 119.24 245.52 117C243.28 114.76 239.653 112.627 234.64 110.6L225.04 106.6C218.64 104.04 213.84 101.053 210.64 97.64C207.44 94.2267 205.84 90.0133 205.84 85C205.84 78.4933 208.293 73.4267 213.2 69.8C218.107 66.0667 224.453 64.2 232.24 64.2C243.973 64.2 251.973 66.3333 256.24 70.6C258.053 72.4133 259.173 74.44 259.6 76.68C260.027 78.92 260.24 82.4933 260.24 87.4H257.04C256.187 82.0667 253.947 77.96 250.32 75.08C246.693 72.0933 241.733 70.6 235.44 70.6C230.427 70.6 226.48 71.6667 223.6 73.8C220.827 75.8267 219.44 78.4933 219.44 81.8C219.44 87.3467 223.707 91.88 232.24 95.4L241.84 99.4C249.093 102.387 254.373 105.587 257.68 109C260.987 112.307 262.64 116.573 262.64 121.8C262.64 128.307 260.027 133.427 254.8 137.16C249.573 140.787 242.853 142.6 234.64 142.6ZM294.046 142.6C290.633 142.6 287.166 141.907 283.646 140.52C280.126 139.027 277.086 136.627 274.526 133.32C272.073 130.013 270.846 125.64 270.846 120.2C270.846 112.093 274.58 106.333 282.046 102.92C289.62 99.5067 299.486 97.8 311.646 97.8H316.446C316.446 87.3467 315.006 80.2 312.126 76.36C309.246 72.52 305.086 70.6 299.646 70.6C294.846 70.6 291.006 71.6133 288.126 73.64C285.246 75.6667 283.22 79.1867 282.046 84.2H274.846C274.846 80.5733 275.06 77.7467 275.486 75.72C275.913 73.5867 277.033 71.6133 278.846 69.8C280.766 67.88 283.913 66.4933 288.286 65.64C292.766 64.68 297.62 64.2 302.846 64.2C311.486 64.2 318.313 66.5467 323.326 71.24C328.34 75.8267 330.846 84.68 330.846 97.8V141H322.846L317.246 133.8H316.446C314.526 136.253 311.7 138.333 307.966 140.04C304.233 141.747 299.593 142.6 294.046 142.6ZM301.246 135.4C304.766 135.4 307.7 134.547 310.046 132.84C312.393 131.133 314.526 128.787 316.446 125.8V104.2H311.646C303.753 104.2 297.513 105.693 292.926 108.68C288.34 111.56 286.046 115.4 286.046 120.2C286.046 125.107 287.486 128.893 290.366 131.56C293.353 134.12 296.98 135.4 301.246 135.4ZM340.197 72.2V65.8H351.397V61C351.397 42.8667 360.731 33.8 379.397 33.8C386.117 33.8 390.651 34.6 392.997 36.2C394.811 37.5867 396.677 39.9867 398.597 43.4L393.797 47.4C390.597 42.6 385.531 40.2 378.597 40.2C370.064 40.2 365.797 47.1333 365.797 61V65.8H388.197V72.2H365.797V141H351.397V72.2H340.197ZM424.869 142.6C417.615 142.6 411.482 140.893 406.469 137.48C401.455 133.96 397.669 129.267 395.109 123.4C392.549 117.427 391.269 110.76 391.269 103.4C391.269 96.1467 392.549 89.5333 395.109 83.56C397.669 77.5867 401.349 72.8933 406.149 69.48C411.055 65.96 416.762 64.2 423.269 64.2C434.042 64.2 442.042 67.24 447.269 73.32C452.602 79.2933 455.269 87.9867 455.269 99.4L454.949 105.8H406.469C406.469 114.76 408.389 122.067 412.229 127.72C416.069 133.373 421.349 136.2 428.069 136.2C433.082 136.2 437.295 135.133 440.709 133C444.229 130.867 447.482 127.667 450.469 123.4L453.669 125.8C450.149 131.667 446.042 135.933 441.349 138.6C436.655 141.267 431.162 142.6 424.869 142.6ZM440.069 99.4C440.069 90.0133 438.682 82.8667 435.909 77.96C433.135 73.0533 428.922 70.6 423.269 70.6C420.069 70.6 417.189 71.88 414.629 74.44C412.069 76.8933 410.042 80.3067 408.549 84.68C407.162 89.0533 406.469 93.96 406.469 99.4H440.069ZM470.194 85C470.194 79.56 469.447 75.56 467.954 73C466.46 70.3333 463.474 69 458.994 69H457.394V65.8H470.194C474.247 65.8 477.287 66.3867 479.314 67.56C481.447 68.6267 482.94 70.44 483.794 73H484.594C486.514 70.5467 489.074 68.4667 492.274 66.76C495.58 65.0533 499.42 64.2 503.794 64.2C508.06 64.2 511.26 65 513.394 66.6C515.207 67.9867 517.074 70.3867 518.994 73.8L512.594 78.6C511.42 77 509.714 75.8267 507.474 75.08C505.234 74.2267 502.674 73.8 499.794 73.8C496.594 73.8 493.66 74.5467 490.994 76.04C488.327 77.4267 486.194 79.3467 484.594 81.8V141H470.194V85Z" fill="#669900"/>
</svg>
