<svg width="139" height="138" viewBox="0 0 139 138" fill="none" xmlns="http://www.w3.org/2000/svg">
<path d="M73.5 33C61 54.5 54.5 71 36.5 84C53.5 83 65.0444 74.6955 80 45.5C91.422 23.456 97.5348 14.1554 113 1C96.4746 2.05827 87.6609 7.3475 73.5 33Z" fill="#669900" stroke="#669900"/>
<path d="M100 71C90.0467 53.2422 87.466 43.8538 95.5 29.5C95.8617 41.9661 108.513 62.6118 133.5 102C138.5 109.882 141 126.5 133.5 136C132.4 121.926 123.939 106.631 100 71Z" fill="#669900" stroke="#669900"/>
<path d="M65 84L82.5 54.5L100 84H65Z" fill="#FF9900" stroke="#FF9900"/>
<path d="M36.5 90.5C21.8237 90.2684 14.1184 89.1356 2 84C9.37821 95.8966 16.6625 100.154 36.5 102.5H83C98 103 108 104.5 116 108.5C110.5 99 102.5 90.5 77.5 90.5H36.5Z" fill="#669900" stroke="#669900"/>
</svg>
